<svg id="visual" viewBox="0 0 1920 768" width="1920" height="768" xmlns="http://www.w3.org/2000/svg" xmlns:xlink="http://www.w3.org/1999/xlink" version="1.1"><rect x="0" y="0" width="1920" height="768" fill="#111827"></rect><path d="M0 148L40 149.3C80 150.7 160 153.3 240 159.2C320 165 400 174 480 174C560 174 640 165 720 164.7C800 164.3 880 172.7 960 174.8C1040 177 1120 173 1200 175C1280 177 1360 185 1440 185.5C1520 186 1600 179 1680 171.2C1760 163.3 1840 154.7 1880 150.3L1920 146L1920 0L1880 0C1840 0 1760 0 1680 0C1600 0 1520 0 1440 0C1360 0 1280 0 1200 0C1120 0 1040 0 960 0C880 0 800 0 720 0C640 0 560 0 480 0C400 0 320 0 240 0C160 0 80 0 40 0L0 0Z" fill="#171f29"></path><path d="M0 120L40 117.8C80 115.7 160 111.3 240 115C320 118.7 400 130.3 480 131.7C560 133 640 124 720 120.5C800 117 880 119 960 119.5C1040 120 1120 119 1200 116.7C1280 114.3 1360 110.7 1440 113.3C1520 116 1600 125 1680 127.3C1760 129.7 1840 125.3 1880 123.2L1920 121L1920 0L1880 0C1840 0 1760 0 1680 0C1600 0 1520 0 1440 0C1360 0 1280 0 1200 0C1120 0 1040 0 960 0C880 0 800 0 720 0C640 0 560 0 480 0C400 0 320 0 240 0C160 0 80 0 40 0L0 0Z" fill="#1a222e"></path><path d="M0 80L40 78C80 76 160 72 240 71.7C320 71.3 400 74.7 480 76C560 77.3 640 76.7 720 78.2C800 79.7 880 83.3 960 85.2C1040 87 1120 87 1200 85C1280 83 1360 79 1440 81.5C1520 84 1600 93 1680 93.7C1760 94.3 1840 86.7 1880 82.8L1920 79L1920 0L1880 0C1840 0 1760 0 1680 0C1600 0 1520 0 1440 0C1360 0 1280 0 1200 0C1120 0 1040 0 960 0C880 0 800 0 720 0C640 0 560 0 480 0C400 0 320 0 240 0C160 0 80 0 40 0L0 0Z" fill="#1c2632"></path><path d="M0 29L40 31.7C80 34.3 160 39.7 240 44.8C320 50 400 55 480 52C560 49 640 38 720 37.2C800 36.3 880 45.7 960 47C1040 48.3 1120 41.7 1200 39.3C1280 37 1360 39 1440 41.3C1520 43.7 1600 46.3 1680 44.8C1760 43.3 1840 37.7 1880 34.8L1920 32L1920 0L1880 0C1840 0 1760 0 1680 0C1600 0 1520 0 1440 0C1360 0 1280 0 1200 0C1120 0 1040 0 960 0C880 0 800 0 720 0C640 0 560 0 480 0C400 0 320 0 240 0C160 0 80 0 40 0L0 0Z" fill="#1f2937"></path></svg>