<svg id="visual" viewBox="0 0 1920 768" width="1920" height="768" xmlns="http://www.w3.org/2000/svg" xmlns:xlink="http://www.w3.org/1999/xlink" version="1.1"><rect x="0" y="0" width="1920" height="768" fill="#111827"></rect><path d="M0 618L40 616.7C80 615.3 160 612.7 240 606.8C320 601 400 592 480 592C560 592 640 601 720 601.3C800 601.7 880 593.3 960 591.2C1040 589 1120 593 1200 591C1280 589 1360 581 1440 580.5C1520 580 1600 587 1680 594.8C1760 602.7 1840 611.3 1880 615.7L1920 620L1920 769L1880 769C1840 769 1760 769 1680 769C1600 769 1520 769 1440 769C1360 769 1280 769 1200 769C1120 769 1040 769 960 769C880 769 800 769 720 769C640 769 560 769 480 769C400 769 320 769 240 769C160 769 80 769 40 769L0 769Z" fill="#171f29"></path><path d="M0 646L40 648.2C80 650.3 160 654.7 240 651C320 647.3 400 635.7 480 634.3C560 633 640 642 720 645.5C800 649 880 647 960 646.5C1040 646 1120 647 1200 649.3C1280 651.7 1360 655.3 1440 652.7C1520 650 1600 641 1680 638.7C1760 636.3 1840 640.7 1880 642.8L1920 645L1920 769L1880 769C1840 769 1760 769 1680 769C1600 769 1520 769 1440 769C1360 769 1280 769 1200 769C1120 769 1040 769 960 769C880 769 800 769 720 769C640 769 560 769 480 769C400 769 320 769 240 769C160 769 80 769 40 769L0 769Z" fill="#1a222e"></path><path d="M0 686L40 688C80 690 160 694 240 694.3C320 694.7 400 691.3 480 690C560 688.7 640 689.3 720 687.8C800 686.3 880 682.7 960 680.8C1040 679 1120 679 1200 681C1280 683 1360 687 1440 684.5C1520 682 1600 673 1680 672.3C1760 671.7 1840 679.3 1880 683.2L1920 687L1920 769L1880 769C1840 769 1760 769 1680 769C1600 769 1520 769 1440 769C1360 769 1280 769 1200 769C1120 769 1040 769 960 769C880 769 800 769 720 769C640 769 560 769 480 769C400 769 320 769 240 769C160 769 80 769 40 769L0 769Z" fill="#1c2632"></path><path d="M0 737L40 734.3C80 731.7 160 726.3 240 721.2C320 716 400 711 480 714C560 717 640 728 720 728.8C800 729.7 880 720.3 960 719C1040 717.7 1120 724.3 1200 726.7C1280 729 1360 727 1440 724.7C1520 722.3 1600 719.7 1680 721.2C1760 722.7 1840 728.3 1880 731.2L1920 734L1920 769L1880 769C1840 769 1760 769 1680 769C1600 769 1520 769 1440 769C1360 769 1280 769 1200 769C1120 769 1040 769 960 769C880 769 800 769 720 769C640 769 560 769 480 769C400 769 320 769 240 769C160 769 80 769 40 769L0 769Z" fill="#1f2937"></path></svg>